<?xml version="1.0" encoding="UTF-8" standalone="no"?>
<svg
        fill="#82b482"
        width="800px"
        height="800px"
        viewBox="0 0 256 256"
        id="Flat"
        stroke="#82b482"
        version="1.1"
        sodipodi:docname="export.svg"
        inkscape:version="1.2.2 (b0a84865, 2022-12-01)"
        xmlns:inkscape="http://www.inkscape.org/namespaces/inkscape"
        xmlns:sodipodi="http://sodipodi.sourceforge.net/DTD/sodipodi-0.dtd"
        xmlns="http://www.w3.org/2000/svg"
        xmlns:svg="http://www.w3.org/2000/svg">
    <defs
            id="defs20"/>
    <sodipodi:namedview
            id="namedview18"
            pagecolor="#ffffff"
            bordercolor="#000000"
            borderopacity="0.25"
            inkscape:showpageshadow="2"
            inkscape:pageopacity="0.0"
            inkscape:pagecheckerboard="0"
            inkscape:deskcolor="#d1d1d1"
            showgrid="false"
            inkscape:zoom="1"
            inkscape:cx="411"
            inkscape:cy="405"
            inkscape:window-width="1371"
            inkscape:window-height="996"
            inkscape:window-x="0"
            inkscape:window-y="38"
            inkscape:window-maximized="0"
            inkscape:current-layer="Flat"/>
    <g
            id="SVGRepo_bgCarrier"
            stroke-width="0"/>
    <g
            id="SVGRepo_tracerCarrier"
            stroke-linecap="round"
            stroke-linejoin="round"/>
    <g
            id="SVGRepo_iconCarrier"
            style="fill:#82b482;fill-opacity:1;stroke:#82b482;stroke-opacity:1">
        <g
                opacity="0.2"
                id="g6"
                style="fill:#82b482;fill-opacity:1;stroke:#82b482;stroke-opacity:1">
            <rect
                    x="24"
                    y="128"
                    width="208"
                    height="80"
                    rx="8"
                    id="rect4"
                    style="fill:#82b482;fill-opacity:1;stroke:#82b482;stroke-opacity:1"/>
        </g>
        <g
                id="g14"
                style="fill:#82b482;fill-opacity:1;stroke:#82b482;stroke-opacity:1">
            <circle
                    cx="188.00049"
                    cy="168"
                    r="12"
                    id="circle8"
                    style="fill:#82b482;fill-opacity:1;stroke:#82b482;stroke-opacity:1"/>
            <path
                    d="M224,120H176a8,8,0,0,0,0,16h48v64H32V136H80a8,8,0,0,0,0-16H32a16.01833,16.01833,0,0,0-16,16v64a16.01833,16.01833,0,0,0,16,16H224a16.01833,16.01833,0,0,0,16-16V136A16.01833,16.01833,0,0,0,224,120Z"
                    id="path10"
                    style="fill:#82b482;fill-opacity:1;stroke:#82b482;stroke-opacity:1"/>
            <path
                    d="M122.34326,133.65723c.02588.02588.05469.04785.08106.07324.16211.15771.32861.31152.50341.45508.09766.08008.20118.15039.30176.22558.1084.08106.21485.165.32764.24073.11621.07812.2373.1455.35693.21679.10449.0625.20655.12793.31446.18555.12011.06445.24414.11914.36669.17676.11426.0542.22657.11084.34327.15967.11816.04882.23925.08837.35937.13134.126.04541.251.09375.37988.13282.11963.03613.24122.063.36231.09326.13184.0332.26269.07031.397.09716.13965.02735.28028.04395.42041.064.11817.01709.23389.03906.353.05078.26269.02588.52588.04.78955.04s.52686-.01416.78955-.04c.11914-.01172.23486-.03369.353-.05078.14013-.02.28076-.03662.42041-.064.13428-.02685.26513-.064.397-.09716.12109-.03028.24268-.05713.36231-.09326.1289-.03907.2539-.08741.37988-.13282.12012-.043.24121-.08252.35937-.13134.1167-.04883.229-.10547.34327-.15967.12255-.05762.24658-.11231.36669-.17676.10791-.05762.21-.12305.31446-.18555.11963-.07129.24072-.13867.35693-.21679.11279-.07569.21924-.15967.32764-.24073.10058-.07519.2041-.1455.30176-.22558.17822-.14649.34765-.30225.51269-.46338.023-.023.04883-.042.07178-.06494l48-48a8.00018,8.00018,0,1,0-11.31348-11.31446L136,108.68652V24a8,8,0,0,0-16,0v84.68652L85.65674,74.34277A8.00018,8.00018,0,0,0,74.34326,85.65723Z"
                    id="path12"
                    style="fill:#82b482;fill-opacity:1;stroke:#82b482;stroke-opacity:1"/>
        </g>
    </g>
</svg>
