<?xml version="1.0" encoding="UTF-8" standalone="no"?>
<svg
        height="800px"
        width="800px"
        version="1.1"
        id="_x32_"
        viewBox="0 0 512 512"
        xml:space="preserve"
        sodipodi:docname="fontsize.svg"
        inkscape:version="1.2.2 (b0a84865, 2022-12-01)"
        xmlns:inkscape="http://www.inkscape.org/namespaces/inkscape"
        xmlns:sodipodi="http://sodipodi.sourceforge.net/DTD/sodipodi-0.dtd"
        xmlns="http://www.w3.org/2000/svg"
        xmlns:svg="http://www.w3.org/2000/svg"><defs
   id="defs13" />
    <sodipodi:namedview
            id="namedview11"
            pagecolor="#ffffff"
            bordercolor="#000000"
            borderopacity="0.25"
            inkscape:showpageshadow="2"
            inkscape:pageopacity="0.0"
            inkscape:pagecheckerboard="0"
            inkscape:deskcolor="#d1d1d1"
            showgrid="false"
            inkscape:zoom="1.24625"
            inkscape:cx="403.20963"
            inkscape:cy="401.60481"
            inkscape:window-width="1390"
            inkscape:window-height="997"
            inkscape:window-x="0"
            inkscape:window-y="38"
            inkscape:window-maximized="0"
            inkscape:current-layer="g8"/>
    <style
            type="text/css"
            id="style2">
	.st0{fill:#000000;}
</style>
    <g
            id="g8">
	<path
            class="st0"
            d="M452.349,174.924c-2.95-11.607-13.402-19.726-25.377-19.726h-34.875c-11.326,0-21.369,7.27-24.892,18.034   l-45.107,137.825l21.184,83.224l19.365-59.17h72.836l18.873,74.142H512L452.349,174.924z M373.354,302.417l27.032-82.607h5.751   l21.028,82.607H373.354z"
            id="path4"
            style="fill:#828282;fill-opacity:1"/>
        <path
                class="st0"
                d="M205.804,65.185h-52.385c-17.012,0-32.097,10.933-37.392,27.108L0,446.815h72.74l36.447-111.374h109.41   l28.35,111.374h86.578L243.929,94.818C239.492,77.385,223.794,65.185,205.804,65.185z M125.257,286.338l40.61-124.094h8.641   l31.588,124.094H125.257z"
                id="path6"
                style="fill:#6e6e6e;fill-opacity:1"/>
</g>
</svg>
