<?xml version="1.0" encoding="UTF-8" standalone="no"?>
<svg
        fill="#96AABE"
        width="800px"
        height="800px"
        viewBox="0 0 256 256"
        id="Flat"
        version="1.1"
        sodipodi:docname="warning.svg"
        inkscape:version="1.2.2 (b0a84865, 2022-12-01)"
        xmlns:inkscape="http://www.inkscape.org/namespaces/inkscape"
        xmlns:sodipodi="http://sodipodi.sourceforge.net/DTD/sodipodi-0.dtd"
        xmlns="http://www.w3.org/2000/svg"
        xmlns:svg="http://www.w3.org/2000/svg">
    <defs
            id="defs14"/>
    <sodipodi:namedview
            id="namedview12"
            pagecolor="#ffffff"
            bordercolor="#000000"
            borderopacity="0.25"
            inkscape:showpageshadow="2"
            inkscape:pageopacity="0.0"
            inkscape:pagecheckerboard="0"
            inkscape:deskcolor="#d1d1d1"
            showgrid="false"
            inkscape:zoom="0.295"
            inkscape:cx="403.38983"
            inkscape:cy="400"
            inkscape:window-width="1309"
            inkscape:window-height="456"
            inkscape:window-x="0"
            inkscape:window-y="25"
            inkscape:window-maximized="0"
            inkscape:current-layer="Flat"/>
    <g
            id="SVGRepo_bgCarrier"
            stroke-width="0"/>
    <g
            id="SVGRepo_tracerCarrier"
            stroke-linecap="round"
            stroke-linejoin="round"/>
    <g
            id="SVGRepo_iconCarrier"
            style="fill:#aaaaaa;fill-opacity:1;stroke:none">
        <g
                opacity="0.2"
                id="g6"
                style="fill:#aaaaaa;fill-opacity:1;stroke:none">
            <circle
                    cx="128"
                    cy="128"
                    r="96"
                    id="circle4"
                    style="fill:#aaaaaa;fill-opacity:1;stroke:none"/>
        </g>
        <path
                d="M128,24A104,104,0,1,0,232,128,104.11759,104.11759,0,0,0,128,24Zm0,192a88,88,0,1,1,88-88A88.09957,88.09957,0,0,1,128,216Zm-8-80V80a8,8,0,0,1,16,0v56a8,8,0,0,1-16,0Zm20,36a12,12,0,1,1-12-12A12,12,0,0,1,140,172Z"
                id="path8"
                style="fill:#aaaaaa;fill-opacity:1;stroke:none"/>
    </g>
</svg>
