<?xml version="1.0" encoding="UTF-8" standalone="no"?>
<svg
        fill="#96AABE"
        width="800px"
        height="800px"
        viewBox="0 0 256.00098 256.00098"
        id="Flat"
        version="1.1"
        sodipodi:docname="zoom-out.svg"
        inkscape:version="1.2.2 (b0a84865, 2022-12-01)"
        xmlns:inkscape="http://www.inkscape.org/namespaces/inkscape"
        xmlns:sodipodi="http://sodipodi.sourceforge.net/DTD/sodipodi-0.dtd"
        xmlns="http://www.w3.org/2000/svg"
        xmlns:svg="http://www.w3.org/2000/svg">
    <defs
            id="defs14"/>
    <sodipodi:namedview
            id="namedview12"
            pagecolor="#ffffff"
            bordercolor="#000000"
            borderopacity="0.25"
            inkscape:showpageshadow="2"
            inkscape:pageopacity="0.0"
            inkscape:pagecheckerboard="0"
            inkscape:deskcolor="#d1d1d1"
            showgrid="false"
            inkscape:zoom="0.295"
            inkscape:cx="403.38983"
            inkscape:cy="400"
            inkscape:window-width="1309"
            inkscape:window-height="456"
            inkscape:window-x="0"
            inkscape:window-y="25"
            inkscape:window-maximized="0"
            inkscape:current-layer="Flat"/>
    <g
            id="SVGRepo_bgCarrier"
            stroke-width="0"/>
    <g
            id="SVGRepo_tracerCarrier"
            stroke-linecap="round"
            stroke-linejoin="round"/>
    <g
            id="SVGRepo_iconCarrier"
            style="fill:#aaaaaa;fill-opacity:1;stroke:none">
        <g
                opacity="0.2"
                id="g6"
                style="fill:#aaaaaa;fill-opacity:1;stroke:none">
            <circle
                    cx="115.99512"
                    cy="115.99707"
                    r="84"
                    id="circle4"
                    style="fill:#aaaaaa;fill-opacity:1;stroke:none"/>
        </g>
        <path
                d="M155.99512,116a8.00008,8.00008,0,0,1-8,8h-64a8,8,0,1,1,0-16h64A8.00008,8.00008,0,0,1,155.99512,116Zm73.65136,113.65479a8.00062,8.00062,0,0,1-11.31445,0l-43.2229-43.22291a92.11457,92.11457,0,1,1,11.31445-11.31341l43.2229,43.22284A8,8,0,0,1,229.64648,229.65479ZM115.99512,191.99707a76,76,0,1,0-76-76A76.08614,76.08614,0,0,0,115.99512,191.99707Z"
                id="path8"
                style="fill:#aaaaaa;fill-opacity:1;stroke:none"/>
    </g>
</svg>
